<?xml version="1.0" encoding="iso-8859-1"?>
<!-- Generator: Adobe Illustrator 19.0.0, SVG Export Plug-In . SVG Version: 6.00 Build 0)  -->
<svg version="1.1" id="Capa_1" xmlns="http://www.w3.org/2000/svg" xmlns:xlink="http://www.w3.org/1999/xlink" x="0px" y="0px"
	 viewBox="0 0 115.669 115.669" style="enable-background:new 0 0 115.669 115.669;" xml:space="preserve">
<g>
	<path d="M57.834,0C25.896,0,0.001,25.894,0.001,57.834c0,31.939,25.895,57.835,57.834,57.835c31.941,0,57.834-25.896,57.834-57.835
		C115.669,25.894,89.776,0,57.834,0z M35.897,53.156c-0.373,5.473-12.929,12.383-13.093,12.473v0.012
		c-0.011-0.006-12.725-6.971-13.1-12.477c-0.4-5.867,3.087-8.127,6.629-8.127c2.472,0,5.394,3.47,6.465,5.701
		c1.069-2.23,3.995-5.709,6.47-5.709C32.811,45.029,36.298,47.289,35.897,53.156z M57.636,97.436
		c-10.04,0-18.208-7.281-18.208-16.231h6c0,5.642,5.477,10.231,12.208,10.231s12.208-4.59,12.208-10.231h6
		C75.844,90.154,67.676,97.436,57.636,97.436z M92.472,65.629v0.012c-0.01-0.006-12.725-6.971-13.1-12.477
		c-0.4-5.867,3.088-8.127,6.629-8.127c2.473,0,5.394,3.47,6.465,5.701c1.07-2.23,3.995-5.709,6.471-5.709
		c3.541,0,7.028,2.26,6.629,8.127C105.192,58.629,92.636,65.539,92.472,65.629z"/>
</g>
<g>
</g>
<g>
</g>
<g>
</g>
<g>
</g>
<g>
</g>
<g>
</g>
<g>
</g>
<g>
</g>
<g>
</g>
<g>
</g>
<g>
</g>
<g>
</g>
<g>
</g>
<g>
</g>
<g>
</g>
</svg>
