<?xml version="1.0" encoding="iso-8859-1"?>
<!-- Generator: Adobe Illustrator 19.0.0, SVG Export Plug-In . SVG Version: 6.00 Build 0)  -->
<svg version="1.1" id="Layer_1" xmlns="http://www.w3.org/2000/svg" xmlns:xlink="http://www.w3.org/1999/xlink" x="0px" y="0px"
	 viewBox="0 0 512 512" style="enable-background:new 0 0 512 512;" xml:space="preserve">
<g>
	<g>
		<g>
			<path d="M460.8,178.988v-68.079c0-18.825-15.309-34.133-34.133-34.133h-75.648L277.7,8.517
				c-12.169-11.324-31.232-11.324-43.401,0l-73.318,68.258H85.333c-18.825,0-34.133,15.309-34.133,34.133v68.079L0,226.655v3.721
				v273.067v8.533h512v-8.533V230.375v-3.721L460.8,178.988z M460.8,202.301l29.448,27.418L460.8,252.153V202.301z M245.931,21.01
				c5.632-5.248,14.507-5.248,20.139,0l59.896,55.765h-139.93L245.931,21.01z M161.596,150.068
				c14.839-16.23,31.539-24.457,49.647-24.457c17.698,0,33.869,9.387,44.766,25.293c10.948-15.906,27.221-25.293,45.082-25.293
				c18.108,0,35.294,8.474,49.707,24.508c17.186,19.115,26.94,62.583-6.733,95.164c-14.49,14.046-81.058,83.704-81.732,84.403
				l-6.178,6.477l-6.17-6.494c-0.666-0.7-67.029-70.494-81.638-84.318C137.242,215.946,140.621,172.997,161.596,150.068z
				 M51.2,202.301v49.852l-29.449-22.434L51.2,202.301z M17.067,247.604l156.587,119.305L17.067,486.213V247.604z M33.818,494.909
				l156.8-119.467h130.765l156.8,119.467H33.818z M494.933,486.213L338.347,366.909l156.587-119.305V486.213z"/>
			<path d="M179.716,235.365c12.416,11.742,59.093,60.612,76.117,78.473c17.05-17.818,63.778-66.551,76.015-78.404
				c25.6-24.781,18.662-57.31,5.914-71.492c-11.255-12.51-23.706-18.85-37.018-18.85c-18.833,0-31.548,15.258-37.154,29.542
				l-7.936,20.224l-7.945-20.224c-5.606-14.285-18.227-29.542-36.821-29.542c-13.116,0-25.583,6.357-37.043,18.901
				C160.823,178.226,153.689,210.747,179.716,235.365z"/>
		</g>
	</g>
</g>
<g>
</g>
<g>
</g>
<g>
</g>
<g>
</g>
<g>
</g>
<g>
</g>
<g>
</g>
<g>
</g>
<g>
</g>
<g>
</g>
<g>
</g>
<g>
</g>
<g>
</g>
<g>
</g>
<g>
</g>
</svg>
